<?xml version="1.0" encoding="utf-8"?>
<!-- Generator: Adobe Illustrator 19.2.1, SVG Export Plug-In . SVG Version: 6.00 Build 0)  -->
<svg version="1.1" id="レイヤー_1" xmlns="http://www.w3.org/2000/svg" xmlns:xlink="http://www.w3.org/1999/xlink" x="0px"
	 y="0px" viewBox="0 0 107 56.8" style="enable-background:new 0 0 107 56.8;" xml:space="preserve">
<style type="text/css">
	.st0{opacity:0.2;fill:#FFFFFF;}
	.st1{opacity:0.35;fill:#FFFFFF;}
	.st2{opacity:0.6;fill:#FFFFFF;}
	.st3{fill:#FFFFFF;}
</style>
<g>
	<path class="st0" d="M1,1.9C1,1.4,1.4,1,1.9,1h7.7c0.5,0,0.9,0.4,0.9,0.9v1.7c0,0.5-0.4,0.9-0.9,0.9H1.9C1.4,4.4,1,4,1,3.5V1.9z"/>
	<path class="st0" d="M64.3,1.9c0-0.5,0.4-0.9,0.9-0.9h7.7c0.5,0,0.9,0.4,0.9,0.9v1.7c0,0.5-0.4,0.9-0.9,0.9h-7.7
		c-0.5,0-0.9-0.4-0.9-0.9V1.9z"/>
	<path class="st0" d="M1,7c0-0.5,0.4-0.9,0.9-0.9h7.7c0.5,0,0.9,0.4,0.9,0.9v1.7c0,0.5-0.4,0.9-0.9,0.9H1.9C1.4,9.5,1,9.1,1,8.7V7z"
		/>
	<path class="st0" d="M64.3,7c0-0.5,0.4-0.9,0.9-0.9h7.7c0.5,0,0.9,0.4,0.9,0.9v1.7c0,0.5-0.4,0.9-0.9,0.9h-7.7
		c-0.5,0-0.9-0.4-0.9-0.9V7z"/>
	<path class="st1" d="M1,12.2c0-0.5,0.4-0.9,0.9-0.9h7.7c0.5,0,0.9,0.4,0.9,0.9v1.7c0,0.5-0.4,0.9-0.9,0.9H1.9
		c-0.5,0-0.9-0.4-0.9-0.9V12.2z"/>
	<path class="st1" d="M64.3,12.2c0-0.5,0.4-0.9,0.9-0.9h7.7c0.5,0,0.9,0.4,0.9,0.9v1.7c0,0.5-0.4,0.9-0.9,0.9h-7.7
		c-0.5,0-0.9-0.4-0.9-0.9V12.2z"/>
	<path class="st1" d="M1,17.3c0-0.5,0.4-0.9,0.9-0.9h7.7c0.5,0,0.9,0.4,0.9,0.9V19c0,0.5-0.4,0.9-0.9,0.9H1.9C1.4,19.8,1,19.5,1,19
		V17.3z"/>
	<path class="st1" d="M64.3,17.3c0-0.5,0.4-0.9,0.9-0.9h7.7c0.5,0,0.9,0.4,0.9,0.9V19c0,0.5-0.4,0.9-0.9,0.9h-7.7
		c-0.5,0-0.9-0.4-0.9-0.9V17.3z"/>
	<path class="st1" d="M1,22.5c0-0.5,0.4-0.9,0.9-0.9h7.7c0.5,0,0.9,0.4,0.9,0.9v1.7c0,0.5-0.4,0.9-0.9,0.9H1.9C1.4,25,1,24.6,1,24.2
		V22.5z"/>
	<path class="st1" d="M12.7,22.5c0-0.5,0.4-0.9,0.9-0.9h6.7c0.5,0,0.9,0.4,0.9,0.9v1.7c0,0.5-0.4,0.9-0.9,0.9h-6.7
		c-0.5,0-0.9-0.4-0.9-0.9V22.5z"/>
	<path class="st1" d="M64.3,22.5c0-0.5,0.4-0.9,0.9-0.9h7.7c0.5,0,0.9,0.4,0.9,0.9v1.7c0,0.5-0.4,0.9-0.9,0.9h-7.7
		c-0.5,0-0.9-0.4-0.9-0.9V22.5z"/>
	<path class="st2" d="M1,27.6c0-0.5,0.4-0.9,0.9-0.9h7.7c0.5,0,0.9,0.4,0.9,0.9v1.7c0,0.5-0.4,0.9-0.9,0.9H1.9
		c-0.5,0-0.9-0.4-0.9-0.9V27.6z"/>
	<path class="st2" d="M12.7,27.6c0-0.5,0.4-0.9,0.9-0.9h6.7c0.5,0,0.9,0.4,0.9,0.9v1.7c0,0.5-0.4,0.9-0.9,0.9h-6.7
		c-0.5,0-0.9-0.4-0.9-0.9V27.6z"/>
	<path class="st1" d="M12.7,17.3c0-0.5,0.4-0.9,0.9-0.9h6.7c0.5,0,0.9,0.4,0.9,0.9V19c0,0.5-0.4,0.9-0.9,0.9h-6.7
		c-0.5,0-0.9-0.4-0.9-0.9V17.3z"/>
	<path class="st2" d="M64.3,27.6c0-0.5,0.4-0.9,0.9-0.9h7.7c0.5,0,0.9,0.4,0.9,0.9v1.7c0,0.5-0.4,0.9-0.9,0.9h-7.7
		c-0.5,0-0.9-0.4-0.9-0.9V27.6z"/>
	<path class="st2" d="M1,32.8C1,32.3,1.4,32,1.9,32h7.7c0.5,0,0.9,0.4,0.9,0.9v1.7c0,0.5-0.4,0.9-0.9,0.9H1.9
		c-0.5,0-0.9-0.4-0.9-0.9V32.8z"/>
	<path class="st2" d="M12.7,32.8c0-0.5,0.4-0.9,0.9-0.9h6.7c0.5,0,0.9,0.4,0.9,0.9v1.7c0,0.5-0.4,0.9-0.9,0.9h-6.7
		c-0.5,0-0.9-0.4-0.9-0.9V32.8z"/>
	<path class="st2" d="M23.5,32.8c0-0.5,0.4-0.9,0.9-0.9H31c0.5,0,0.9,0.4,0.9,0.9v1.7c0,0.5-0.4,0.9-0.9,0.9h-6.7
		c-0.5,0-0.9-0.4-0.9-0.9V32.8z"/>
	<path class="st2" d="M64.3,32.8c0-0.5,0.4-0.9,0.9-0.9h7.7c0.5,0,0.9,0.4,0.9,0.9v1.7c0,0.5-0.4,0.9-0.9,0.9h-7.7
		c-0.5,0-0.9-0.4-0.9-0.9V32.8z"/>
	<path class="st2" d="M1,38c0-0.5,0.4-0.9,0.9-0.9h7.7c0.5,0,0.9,0.4,0.9,0.9v1.7c0,0.5-0.4,0.9-0.9,0.9H1.9c-0.5,0-0.9-0.4-0.9-0.9
		V38z"/>
	<path class="st2" d="M12.7,38c0-0.5,0.4-0.9,0.9-0.9h6.7c0.5,0,0.9,0.4,0.9,0.9v1.7c0,0.5-0.4,0.9-0.9,0.9h-6.7
		c-0.5,0-0.9-0.4-0.9-0.9V38z"/>
	<path class="st2" d="M64.3,38c0-0.5,0.4-0.9,0.9-0.9h7.7c0.5,0,0.9,0.4,0.9,0.9v1.7c0,0.5-0.4,0.9-0.9,0.9h-7.7
		c-0.5,0-0.9-0.4-0.9-0.9V38z"/>
	<path class="st3" d="M1,43.1c0-0.5,0.4-0.9,0.9-0.9h7.7c0.5,0,0.9,0.4,0.9,0.9v1.7c0,0.5-0.4,0.9-0.9,0.9H1.9
		c-0.5,0-0.9-0.4-0.9-0.9V43.1z"/>
	<path class="st3" d="M12.7,43.1c0-0.5,0.4-0.9,0.9-0.9h6.7c0.5,0,0.9,0.4,0.9,0.9v1.7c0,0.5-0.4,0.9-0.9,0.9h-6.7
		c-0.5,0-0.9-0.4-0.9-0.9V43.1z"/>
	<path class="st3" d="M23.5,43.1c0-0.5,0.4-0.9,0.9-0.9H31c0.5,0,0.9,0.4,0.9,0.9v1.7c0,0.5-0.4,0.9-0.9,0.9h-6.7
		c-0.5,0-0.9-0.4-0.9-0.9V43.1z"/>
	<path class="st3" d="M64.3,43.1c0-0.5,0.4-0.9,0.9-0.9h7.7c0.5,0,0.9,0.4,0.9,0.9v1.7c0,0.5-0.4,0.9-0.9,0.9h-7.7
		c-0.5,0-0.9-0.4-0.9-0.9V43.1z"/>
	<path class="st3" d="M1,48.3c0-0.5,0.4-0.9,0.9-0.9h7.7c0.5,0,0.9,0.4,0.9,0.9V50c0,0.5-0.4,0.9-0.9,0.9H1.9C1.4,50.8,1,50.4,1,50
		V48.3z"/>
	<path class="st3" d="M12.7,48.3c0-0.5,0.4-0.9,0.9-0.9h6.7c0.5,0,0.9,0.4,0.9,0.9V50c0,0.5-0.4,0.9-0.9,0.9h-6.7
		c-0.5,0-0.9-0.4-0.9-0.9V48.3z"/>
	<path class="st3" d="M23.5,48.3c0-0.5,0.4-0.9,0.9-0.9H31c0.5,0,0.9,0.4,0.9,0.9V50c0,0.5-0.4,0.9-0.9,0.9h-6.7
		c-0.5,0-0.9-0.4-0.9-0.9V48.3z"/>
	<path class="st2" d="M23.5,38c0-0.5,0.4-0.9,0.9-0.9H31c0.5,0,0.9,0.4,0.9,0.9v1.7c0,0.5-0.4,0.9-0.9,0.9h-6.7
		c-0.5,0-0.9-0.4-0.9-0.9V38z"/>
	<path class="st3" d="M64.3,48.3c0-0.5,0.4-0.9,0.9-0.9h7.7c0.5,0,0.9,0.4,0.9,0.9V50c0,0.5-0.4,0.9-0.9,0.9h-7.7
		c-0.5,0-0.9-0.4-0.9-0.9V48.3z"/>
	<path class="st3" d="M76.1,48.3c0-0.5,0.4-0.9,0.9-0.9h6.7c0.5,0,0.9,0.4,0.9,0.9V50c0,0.5-0.4,0.9-0.9,0.9h-6.7
		c-0.5,0-0.9-0.4-0.9-0.9V48.3z"/>
	<path class="st3" d="M86.8,48.3c0-0.5,0.4-0.9,0.9-0.9h6.7c0.5,0,0.9,0.4,0.9,0.9V50c0,0.5-0.4,0.9-0.9,0.9h-6.7
		c-0.5,0-0.9-0.4-0.9-0.9V48.3z"/>
	<path class="st3" d="M1,53.4c0-0.5,0.4-0.9,0.9-0.9h7.7c0.5,0,0.9,0.4,0.9,0.9v1.7c0,0.5-0.4,0.9-0.9,0.9H1.9C1.4,56,1,55.6,1,55.1
		V53.4z"/>
	<path class="st3" d="M12.7,53.4c0-0.5,0.4-0.9,0.9-0.9h6.7c0.5,0,0.9,0.4,0.9,0.9v1.7c0,0.5-0.4,0.9-0.9,0.9h-6.7
		c-0.5,0-0.9-0.4-0.9-0.9V53.4z"/>
	<path class="st3" d="M23.5,53.4c0-0.5,0.4-0.9,0.9-0.9H31c0.5,0,0.9,0.4,0.9,0.9v1.7c0,0.5-0.4,0.9-0.9,0.9h-6.7
		c-0.5,0-0.9-0.4-0.9-0.9V53.4z"/>
	<path class="st3" d="M64.3,53.4c0-0.5,0.4-0.9,0.9-0.9h7.7c0.5,0,0.9,0.4,0.9,0.9v1.7c0,0.5-0.4,0.9-0.9,0.9h-7.7
		c-0.5,0-0.9-0.4-0.9-0.9V53.4z"/>
	<path class="st3" d="M76.1,53.4c0-0.5,0.4-0.9,0.9-0.9h6.7c0.5,0,0.9,0.4,0.9,0.9v1.7c0,0.5-0.4,0.9-0.9,0.9h-6.7
		c-0.5,0-0.9-0.4-0.9-0.9V53.4z"/>
	<path class="st3" d="M86.8,53.4c0-0.5,0.4-0.9,0.9-0.9h6.7c0.5,0,0.9,0.4,0.9,0.9v1.7c0,0.5-0.4,0.9-0.9,0.9h-6.7
		c-0.5,0-0.9-0.4-0.9-0.9V53.4z"/>
	<path class="st3" d="M97.5,48.3c0-0.5,0.4-0.9,0.9-0.9h6.7c0.5,0,0.9,0.4,0.9,0.9V50c0,0.5-0.4,0.9-0.9,0.9h-6.7
		c-0.5,0-0.9-0.4-0.9-0.9V48.3z"/>
	<path class="st3" d="M97.5,53.4c0-0.5,0.4-0.9,0.9-0.9h6.7c0.5,0,0.9,0.4,0.9,0.9v1.7c0,0.5-0.4,0.9-0.9,0.9h-6.7
		c-0.5,0-0.9-0.4-0.9-0.9V53.4z"/>
	<path class="st3" d="M76.1,43.1c0-0.5,0.4-0.9,0.9-0.9h6.7c0.5,0,0.9,0.4,0.9,0.9v1.7c0,0.5-0.4,0.9-0.9,0.9h-6.7
		c-0.5,0-0.9-0.4-0.9-0.9V43.1z"/>
	<path class="st3" d="M86.8,43.1c0-0.5,0.4-0.9,0.9-0.9h6.7c0.5,0,0.9,0.4,0.9,0.9v1.7c0,0.5-0.4,0.9-0.9,0.9h-6.7
		c-0.5,0-0.9-0.4-0.9-0.9V43.1z"/>
	<path class="st3" d="M97.5,43.1c0-0.5,0.4-0.9,0.9-0.9h6.7c0.5,0,0.9,0.4,0.9,0.9v1.7c0,0.5-0.4,0.9-0.9,0.9h-6.7
		c-0.5,0-0.9-0.4-0.9-0.9V43.1z"/>
	<path class="st3" d="M34.2,43.1c0-0.5,0.4-0.9,0.9-0.9h6.7c0.5,0,0.9,0.4,0.9,0.9v1.7c0,0.5-0.4,0.9-0.9,0.9H35
		c-0.5,0-0.9-0.4-0.9-0.9V43.1z"/>
	<path class="st3" d="M34.2,48.3c0-0.5,0.4-0.9,0.9-0.9h6.7c0.5,0,0.9,0.4,0.9,0.9V50c0,0.5-0.4,0.9-0.9,0.9H35
		c-0.5,0-0.9-0.4-0.9-0.9V48.3z"/>
	<path class="st3" d="M34.2,53.4c0-0.5,0.4-0.9,0.9-0.9h6.7c0.5,0,0.9,0.4,0.9,0.9v1.7c0,0.5-0.4,0.9-0.9,0.9H35
		c-0.5,0-0.9-0.4-0.9-0.9V53.4z"/>
	<path class="st0" d="M44.9,1.9c0-0.5,0.4-0.9,0.9-0.9h7.7c0.5,0,0.9,0.4,0.9,0.9v1.7c0,0.5-0.4,0.9-0.9,0.9h-7.7
		c-0.5,0-0.9-0.4-0.9-0.9V1.9z"/>
	<path class="st0" d="M44.9,7c0-0.5,0.4-0.9,0.9-0.9h7.7c0.5,0,0.9,0.4,0.9,0.9v1.7c0,0.5-0.4,0.9-0.9,0.9h-7.7
		c-0.5,0-0.9-0.4-0.9-0.9V7z"/>
	<path class="st1" d="M44.9,12.2c0-0.5,0.4-0.9,0.9-0.9h7.7c0.5,0,0.9,0.4,0.9,0.9v1.7c0,0.5-0.4,0.9-0.9,0.9h-7.7
		c-0.5,0-0.9-0.4-0.9-0.9V12.2z"/>
	<path class="st1" d="M44.9,17.3c0-0.5,0.4-0.9,0.9-0.9h7.7c0.5,0,0.9,0.4,0.9,0.9V19c0,0.5-0.4,0.9-0.9,0.9h-7.7
		c-0.5,0-0.9-0.4-0.9-0.9V17.3z"/>
	<path class="st1" d="M44.9,22.5c0-0.5,0.4-0.9,0.9-0.9h7.7c0.5,0,0.9,0.4,0.9,0.9v1.7c0,0.5-0.4,0.9-0.9,0.9h-7.7
		c-0.5,0-0.9-0.4-0.9-0.9V22.5z"/>
	<path class="st2" d="M44.9,27.6c0-0.5,0.4-0.9,0.9-0.9h7.7c0.5,0,0.9,0.4,0.9,0.9v1.7c0,0.5-0.4,0.9-0.9,0.9h-7.7
		c-0.5,0-0.9-0.4-0.9-0.9V27.6z"/>
	<path class="st2" d="M44.9,32.8c0-0.5,0.4-0.9,0.9-0.9h7.7c0.5,0,0.9,0.4,0.9,0.9v1.7c0,0.5-0.4,0.9-0.9,0.9h-7.7
		c-0.5,0-0.9-0.4-0.9-0.9V32.8z"/>
	<path class="st2" d="M44.9,38c0-0.5,0.4-0.9,0.9-0.9h7.7c0.5,0,0.9,0.4,0.9,0.9v1.7c0,0.5-0.4,0.9-0.9,0.9h-7.7
		c-0.5,0-0.9-0.4-0.9-0.9V38z"/>
	<path class="st3" d="M44.9,43.1c0-0.5,0.4-0.9,0.9-0.9h7.7c0.5,0,0.9,0.4,0.9,0.9v1.7c0,0.5-0.4,0.9-0.9,0.9h-7.7
		c-0.5,0-0.9-0.4-0.9-0.9V43.1z"/>
	<path class="st3" d="M44.9,48.3c0-0.5,0.4-0.9,0.9-0.9h7.7c0.5,0,0.9,0.4,0.9,0.9V50c0,0.5-0.4,0.9-0.9,0.9h-7.7
		c-0.5,0-0.9-0.4-0.9-0.9V48.3z"/>
	<path class="st3" d="M44.9,53.4c0-0.5,0.4-0.9,0.9-0.9h7.7c0.5,0,0.9,0.4,0.9,0.9v1.7c0,0.5-0.4,0.9-0.9,0.9h-7.7
		c-0.5,0-0.9-0.4-0.9-0.9V53.4z"/>
</g>
</svg>
